<svg width="14" height="14" viewBox="0 0 14 14" fill="none" xmlns="http://www.w3.org/2000/svg">
<g id="tabler-icon-map-pin-filled">
<path id="Vector" d="M10.7124 2.70437C11.6762 3.66811 12.2275 4.96894 12.2496 6.33178C12.2717 7.69462 11.7629 9.01263 10.8308 10.0071L10.7124 10.1296L8.23728 12.6041C7.92323 12.918 7.50163 13.1007 7.05787 13.1153C6.61412 13.13 6.1814 12.9754 5.84737 12.6829L5.76337 12.6041L3.2877 10.129C2.30313 9.14447 1.75 7.8091 1.75 6.4167C1.75 5.02431 2.30313 3.68894 3.2877 2.70437C4.27227 1.7198 5.60764 1.16667 7.00003 1.16667C8.39243 1.16667 9.72779 1.7198 10.7124 2.70437ZM7.00003 4.6667C6.77022 4.6667 6.54266 4.71197 6.33034 4.79991C6.11802 4.88786 5.9251 5.01676 5.7626 5.17927C5.60009 5.34177 5.47119 5.53469 5.38324 5.74701C5.2953 5.95933 5.25003 6.18689 5.25003 6.4167C5.25003 6.64652 5.2953 6.87408 5.38324 7.0864C5.47119 7.29872 5.60009 7.49164 5.7626 7.65414C5.9251 7.81664 6.11802 7.94555 6.33034 8.03349C6.54266 8.12144 6.77022 8.1667 7.00003 8.1667C7.46416 8.1667 7.90928 7.98233 8.23747 7.65414C8.56566 7.32595 8.75003 6.88083 8.75003 6.4167C8.75003 5.95258 8.56566 5.50746 8.23747 5.17927C7.90928 4.85108 7.46416 4.6667 7.00003 4.6667Z" fill="white"/>
</g>
</svg>
